<svg xmlns="http://www.w3.org/2000/svg" width="64" height="76.832" viewBox="0 0 64 76.832"><g transform="translate(6.162 1.026)"><circle cx="32" cy="32" r="32" transform="translate(-6.162 10.046)" fill="#00e8dd"></circle> <path d="M-34.293,0l-3.426,6.4H2.67L-1.249,0" transform="translate(42.385 68.406)" fill="#fff" stroke="#646464" stroke-linecap="round" stroke-linejoin="round" stroke-width="2"></path> <path d="M424.944,142.945l1.11-1.111a5.724,5.724,0,0,1,4.047-1.677h0a5.725,5.725,0,0,1,5.721,5.508l.929,24.482a18.979,18.979,0,0,1-5.738,14.331l-.139.134" transform="translate(-390.957 -135.421)" fill="#fff" stroke="#646464" stroke-linecap="round" stroke-linejoin="round" stroke-width="2"></path> <path d="M412.654,162.161,403.1,181.845l1.014,7.224h25.906l2.221-3.03-2.916-40.689-13.3-9.558a.948.948,0,0,0-1.5.85l.546,6.132-1.373-.043a5.831,5.831,0,0,0-5.916,4.732h0a22.36,22.36,0,0,0-11.24,2.789,3.152,3.152,0,0,0-1.684,2.726c-.062,3.1.264,4.449,1.439,6.16a3.169,3.169,0,0,0,2.744,1.366c3.852-.16,8.873-.754,8.873-.754s1.126,2.856,6.362,1.989,5.036-6.085,5.036-6.085" transform="translate(-392.221 -135.612)" fill="#fff" stroke="#646464" stroke-linecap="round" stroke-linejoin="round" stroke-width="2"></path> <g transform="translate(0 53.457)"><line x2="49.838" transform="translate(0 21.341)" fill="none" stroke="#646464" stroke-linecap="round" stroke-linejoin="round" stroke-width="2"></line> <path d="M400.588,196.582l3.261-9.67h26.082l3.584,9.67" transform="translate(-391.981 -186.912)" fill="#fff" stroke="#646464" stroke-linecap="round" stroke-linejoin="round" stroke-width="2"></path> <rect width="40.273" height="5.123" rx="2.458" transform="translate(4.737 9.67)" stroke-width="2" stroke="#646464" stroke-linecap="round" stroke-linejoin="round" fill="#fff"></rect></g> <path d="M420.33,146.96H412.8a1.057,1.057,0,0,0-.971,1.492,3.626,3.626,0,0,0,3.462,2.218" transform="translate(-391.512 -135.135)" fill="#fff" stroke="#646464" stroke-linecap="round" stroke-linejoin="round" stroke-width="2"></path> <line x2="2.031" y2="22.967" transform="translate(33.282 30.491)" fill="none" stroke="#646464" stroke-linecap="round" stroke-linejoin="round" stroke-width="2"></line></g></svg>