<svg xmlns="http://www.w3.org/2000/svg" width="64" height="68.761" viewBox="0 0 64 68.761"><g transform="translate(2.946 1)"><circle cx="32" cy="32" r="32" transform="translate(-2.946 2)" fill="#00e8dd"></circle> <path d="M859.4,163.324l-9.578-3.945V148.471H857.5v5.437h7.817v-5.437h7.542v5.373h7.474v-5.373h7.68v10.908l-9.479,3.945" transform="translate(-839.648 -148.471)" fill="#fff" stroke="#646464" stroke-linecap="round" stroke-linejoin="round" stroke-width="2"></path> <path d="M880.406,190.48,877.772,161.5H858.233l-2.566,28.984" transform="translate(-838.689 -146.643)" fill="#fff" stroke="#646464" stroke-linecap="round" stroke-linejoin="round" stroke-width="2"></path> <line x2="27.53" transform="translate(15.49 21.95)" fill="none" stroke="#646464" stroke-linecap="round" stroke-linejoin="round" stroke-width="2"></line> <path d="M-34.055,0l-3.664,6.737h43.2L1.293,0" transform="translate(45.254 60.024)" fill="#fff" stroke="#646464" stroke-linecap="round" stroke-linejoin="round" stroke-width="2"></path> <g transform="translate(2.947 44.287)"><line x2="52.504" transform="translate(0 22.466)" fill="none" stroke="#646464" stroke-linecap="round" stroke-linejoin="round" stroke-width="2"></line> <path d="M400.588,197.092,404,186.912h27.261L435,197.092" transform="translate(-391.381 -186.912)" fill="#fff" stroke="#646464" stroke-linecap="round" stroke-linejoin="round" stroke-width="2"></path> <rect width="42.272" height="5.393" rx="2.458" transform="translate(5.067 10.18)" stroke-width="2" stroke="#646464" stroke-linecap="round" stroke-linejoin="round" fill="#fff"></rect></g></g></svg>