<svg xmlns="http://www.w3.org/2000/svg" width="64" height="88.396" viewBox="0 0 64 88.396"><g transform="translate(5.551 1)"><circle cx="32" cy="32" r="32" transform="translate(-5.551 20.636)" fill="#00e8dd"></circle> <g transform="translate(0 0)"><g><path d="M203.381,189.091l-2.319-27.6h-17.2l-2.259,27.6" transform="translate(-166.444 -125.922)" fill="#fff" stroke="#646464" stroke-linecap="round" stroke-linejoin="round" stroke-width="2"></path> <line x2="24.233" transform="translate(13.847 42.332)" fill="none" stroke="#646464" stroke-linecap="round" stroke-linejoin="round" stroke-width="2"></line> <path d="M201.014,152.7H183.829s1.847-5.586-4.591-12.214a21.84,21.84,0,0,1,2.367-3.124,3.247,3.247,0,0,0,3.077,2.509,2.816,2.816,0,0,0,2.793-2.509h1.94a3.122,3.122,0,0,0,2.983,2.556,3.2,3.2,0,0,0,3.03-2.556h1.988a2.833,2.833,0,0,0,2.84,2.509,3.427,3.427,0,0,0,3.219-2.509l2.509,3.36S201.014,142.755,201.014,152.7Z" transform="translate(-166.647 -127.99)" fill="#fff" stroke="#646464" stroke-linecap="round" stroke-linejoin="round" stroke-width="2"></path> <path d="M184.426,142.591a11.648,11.648,0,0,1,2.036,6.581" transform="translate(-166.202 -127.542)" fill="#fff" stroke="#646464" stroke-linecap="round" stroke-linejoin="round" stroke-width="2"></path> <path d="M184.149,136.316s2.157-2.835,8.278-2.835c5.441,0,7.708,2.835,7.708,2.835" transform="translate(-166.226 -128.323)" fill="#fff" stroke="#646464" stroke-linecap="round" stroke-linejoin="round" stroke-width="2"></path> <line y2="5.159" transform="translate(26.029)" fill="none" stroke="#646464" stroke-linecap="round" stroke-linejoin="round" stroke-width="2"></line> <line x2="16.281" transform="translate(17.775 31.862)" fill="none" stroke="#646464" stroke-linecap="round" stroke-linejoin="round" stroke-width="2"></line> <line x2="16.281" transform="translate(17.775 28.284)" fill="none" stroke="#646464" stroke-linecap="round" stroke-linejoin="round" stroke-width="2"></line> <path d="M-34.16,0l-3.559,6.737H4.238L.167,0" transform="translate(42.649 79.66)" fill="#fff" stroke="#646464" stroke-linecap="round" stroke-linejoin="round" stroke-width="2"></path> <g transform="translate(0.343 63.923)"><line x2="51.257" transform="translate(0 22.466)" fill="none" stroke="#646464" stroke-linecap="round" stroke-linejoin="round" stroke-width="2"></line> <path d="M400.588,197.092l3.285-10.18h26.273l3.611,10.18" transform="translate(-391.381 -186.912)" fill="#fff" stroke="#646464" stroke-linecap="round" stroke-linejoin="round" stroke-width="2"></path> <rect width="41.025" height="5.393" rx="2.458" transform="translate(5.067 10.18)" stroke-width="2" stroke="#646464" stroke-linecap="round" stroke-linejoin="round" fill="#fff"></rect></g></g></g></g></svg>